<svg width="231" height="24" viewBox="0 0 231 24" fill="none" xmlns="http://www.w3.org/2000/svg">
<rect x="0.0012207" width="3.98283" height="24" fill="#999999"/>
<rect x="5.97534" y="3.22388" width="3.98283" height="17.5522" fill="#999999"/>
<rect x="11.9495" y="1.79102" width="3.98283" height="20.4179" fill="#999999"/>
<rect x="17.9236" y="2.86572" width="3.98283" height="18.2687" fill="#999999"/>
<rect x="23.8977" y="4.29858" width="3.98283" height="15.403" fill="#999999"/>
<rect x="29.8721" y="7.16431" width="3.98283" height="9.67164" fill="#999999"/>
<rect x="35.8459" y="8.23877" width="3.98283" height="7.52239" fill="#999999"/>
<rect x="41.8201" y="6.44775" width="3.98283" height="11.1045" fill="#999999"/>
<rect x="47.7942" y="3.22388" width="3.98283" height="17.5522" fill="#999999"/>
<rect x="53.7688" width="3.98283" height="24" fill="#999999"/>
<rect x="59.7424" y="2.14917" width="3.98283" height="19.7015" fill="#999999"/>
<rect x="65.7166" y="3.22388" width="3.98283" height="17.5522" fill="#999999"/>
<rect x="71.6912" y="5.37329" width="3.98283" height="13.2537" fill="#999999"/>
<rect x="77.6648" y="7.52246" width="3.98283" height="8.95522" fill="#999999"/>
<rect x="83.6389" y="8.95532" width="3.98283" height="6.08955" fill="#999999"/>
<rect x="89.613" y="5.37329" width="3.98283" height="13.2537" fill="#999999"/>
<rect x="95.5874" y="4.65674" width="3.98283" height="14.6866" fill="#999999"/>
<rect x="101.561" y="3.94019" width="3.98283" height="16.1194" fill="#999999"/>
<rect x="107.535" y="2.86572" width="3.98283" height="18.2687" fill="#999999"/>
<rect x="113.51" y="1.43286" width="3.98283" height="21.1343" fill="#999999"/>
<rect x="119.483" y="2.14917" width="3.98283" height="19.7015" fill="#999999"/>
<rect x="125.458" y="1.07471" width="3.98283" height="21.8507" fill="#999999"/>
<rect x="131.432" y="0.716553" width="3.98283" height="22.5672" fill="#999999"/>
<rect x="137.406" width="3.98283" height="24" fill="#999999"/>
<rect x="143.38" y="1.79102" width="3.98283" height="20.4179" fill="#999999"/>
<rect x="149.354" y="1.07471" width="3.98283" height="21.8507" fill="#999999"/>
<rect x="155.328" y="1.79102" width="3.98283" height="20.4179" fill="#999999"/>
<rect x="161.302" y="2.14917" width="3.98283" height="19.7015" fill="#999999"/>
<rect x="167.277" y="0.716553" width="3.98283" height="22.5672" fill="#999999"/>
<rect x="173.251" y="0.716553" width="3.98283" height="22.5672" fill="#999999"/>
<rect x="179.225" y="1.43286" width="3.98283" height="21.1343" fill="#999999"/>
<rect x="185.199" y="2.50757" width="3.98283" height="18.9851" fill="#999999"/>
<rect x="191.173" y="3.22388" width="3.98283" height="17.5522" fill="#999999"/>
<rect x="197.147" y="1.07471" width="3.98283" height="21.8507" fill="#999999"/>
<rect x="203.122" y="0.716553" width="3.98283" height="22.5672" fill="#999999"/>
<rect x="209" y="3" width="4" height="17" fill="#999999"/>
<rect x="215.07" width="3.98283" height="24" fill="#999999"/>
<rect x="221.001" y="6" width="4" height="12" fill="#999999"/>
<rect x="227.001" y="7" width="4" height="9" fill="#999999"/>
</svg>
