<svg width="32" height="32" viewBox="0 0 32 32" fill="none" xmlns="http://www.w3.org/2000/svg">
<path d="M16 1C24.2843 1 31 7.71573 31 16C31 24.2843 24.2843 31 16 31C7.71573 31 1 24.2843 1 16C1 7.71573 7.71573 1 16 1ZM12.0127 9.4375C11.6261 9.4375 11.3125 9.7511 11.3125 10.1377V20.9248C11.3125 21.3114 11.6261 21.625 12.0127 21.625H14.3623C14.7489 21.625 15.0625 21.3114 15.0625 20.9248V10.1377C15.0625 9.7511 14.7489 9.4375 14.3623 9.4375H12.0127ZM17.6377 9.4375C17.2511 9.4375 16.9375 9.7511 16.9375 10.1377V20.9248C16.9375 21.3114 17.2511 21.625 17.6377 21.625H19.9873C20.3739 21.625 20.6875 21.3114 20.6875 20.9248V10.1377C20.6875 9.7511 20.3739 9.4375 19.9873 9.4375H17.6377Z" fill="#FF9934"/>
</svg>
